# xmcd
# 
# Track frame offsets:
#     150
#     19127
#     36302
#     50415
#     63152
#     78545
#     91977
#     106697
#     118645
#     134057
#     169437
# 
# Disc length: 2459
# 
# Revision: 85
# Processed by: cddbd v1.5.2PL0 Copyright (c) Steve Scherf et al.
# Submitted via: fre:ac v1.0.31
# 
DISCID=9309990b
DTITLE=Various Artist - The Blues Brothers (Soundtrack)
DYEAR=1980
DGENRE=Soundtrack
TTITLE0=Jake - She caught the Katy
TTITLE1=Henri Mancini - Peter Gunn Theme
TTITLE2=Jake - Gimme some Lovin'
TTITLE3=Ray Charles, Jake and Elwood - Shake a tail feather
TTITLE4=Jake and Elwood - Everybody needs somebody to love
TTITLE5=James Brown with Rev. James Cleveland Choir - The old Landmark
TTITLE6=Aretha Franklin - Think
TTITLE7=Elwood and Jake - Theme from Rawhide
TTITLE8=Cab Calloway - Minnie the Moocher
TTITLE9=Elwood and Jake - Sweet Home Chicago
TTITLE10=Jake - Jailhouse Rock
EXTD=
EXTT0=
EXTT1=
EXTT2=
EXTT3=
EXTT4=
EXTT5=
EXTT6=
EXTT7=
EXTT8=
EXTT9=
EXTT10=
PLAYORDER=
